<svg width="654" height="625" viewBox="0 0 654 625" fill="none" xmlns="http://www.w3.org/2000/svg">
<circle cx="338" cy="315" r="207" fill="#C6C9CE"/>
<circle cx="338" cy="315" r="180" fill="#ECECEC"/>
<path d="M338 478C381.23 478 422.69 460.827 453.258 430.258C483.827 399.69 501 358.23 501 315C501 271.77 483.827 230.31 453.258 199.742C422.69 169.173 381.23 152 338 152C294.77 152 253.31 169.173 222.742 199.742C192.173 230.31 175 271.77 175 315C175 358.23 192.173 399.69 222.742 430.258C253.31 460.827 294.77 478 338 478ZM409.949 285.074L328.449 366.574C322.464 372.559 312.786 372.559 306.864 366.574L266.114 325.824C260.129 319.839 260.129 310.161 266.114 304.239C272.1 298.318 281.778 298.254 287.699 304.239L317.625 334.165L388.301 263.426C394.286 257.441 403.964 257.441 409.886 263.426C415.807 269.411 415.871 279.089 409.886 285.011L409.949 285.074Z" fill="#1E3050"/>
<circle cx="21" cy="186" r="21" fill="#5D77A4"/>
<circle cx="21" cy="186" r="21" fill="#5D77A4"/>
<circle cx="21" cy="186" r="21" fill="#5D77A4"/>
<circle cx="577.5" cy="138.5" r="13.5" fill="#5D77A4"/>
<circle cx="577.5" cy="138.5" r="13.5" fill="#5D77A4"/>
<circle cx="577.5" cy="138.5" r="13.5" fill="#5D77A4"/>
<circle cx="305" cy="36" r="22" fill="#5D77A4"/>
<circle cx="305" cy="36" r="22" fill="#5D77A4"/>
<circle cx="305" cy="36" r="22" fill="#5D77A4"/>
<circle cx="359.5" cy="13.5" r="13.5" fill="#5D77A4"/>
<circle cx="359.5" cy="13.5" r="13.5" fill="#5D77A4"/>
<circle cx="359.5" cy="13.5" r="13.5" fill="#5D77A4"/>
<circle cx="633" cy="450" r="21" fill="#5D77A4"/>
<circle cx="633" cy="450" r="21" fill="#5D77A4"/>
<circle cx="633" cy="450" r="21" fill="#5D77A4"/>
<circle cx="111" cy="531" r="30" fill="#5D77A4"/>
<circle cx="111" cy="531" r="30" fill="#5D77A4"/>
<circle cx="111" cy="531" r="30" fill="#5D77A4"/>
<circle cx="53" cy="473" r="11" fill="#5D77A4"/>
<circle cx="53" cy="473" r="11" fill="#5D77A4"/>
<circle cx="53" cy="473" r="11" fill="#5D77A4"/>
<circle cx="576.5" cy="502.5" r="14.5" fill="#5D77A4"/>
<circle cx="576.5" cy="502.5" r="14.5" fill="#5D77A4"/>
<circle cx="576.5" cy="502.5" r="14.5" fill="#5D77A4"/>
<circle cx="371" cy="614" r="11" fill="#5D77A4"/>
<circle cx="371" cy="614" r="11" fill="#5D77A4"/>
<circle cx="371" cy="614" r="11" fill="#5D77A4"/>
</svg>
